<?xml version="1.0" encoding="utf-8"?>
<!-- Generator: Adobe Illustrator 16.0.0, SVG Export Plug-In . SVG Version: 6.00 Build 0)  -->
<!DOCTYPE svg PUBLIC "-//W3C//DTD SVG 1.1//EN" "http://www.w3.org/Graphics/SVG/1.1/DTD/svg11.dtd">
<svg version="1.1" id="katman_1" xmlns="http://www.w3.org/2000/svg" xmlns:xlink="http://www.w3.org/1999/xlink" x="0px" y="0px"
	 width="189px" height="40px" viewBox="0 0 189 40" enable-background="new 0 0 189 40" xml:space="preserve">
<g>
	<path fill="#231E20" stroke="#010202" stroke-width="0.5" stroke-miterlimit="10" d="M3.093,12.122
		c0.177-0.14,0.333-0.24,0.459-0.369c0.132-0.136,0.283-0.172,0.459-0.171c0.455,0.006,0.908,0.007,1.362,0.006
		c1.429-0.003,2.857-0.01,4.286-0.014c0.101,0,0.203,0.012,0.312,0.018c0.009,0.098,0.021,0.171,0.021,0.246
		c0.001,0.558,0.002,1.115-0.001,1.674c-0.017,2.395-0.038,4.79-0.052,7.184c-0.012,2.028-0.014,4.054-0.027,6.078
		c-0.004,0.682,0,1.366-0.146,2.036C9.672,29.23,9.56,29.638,9.278,30c-0.357,0.458-0.953,0.474-1.358,0.328
		c-0.534-0.193-0.936-0.564-1.295-0.983c-0.572-0.666-0.975-1.438-1.343-2.229c-0.568-1.219-1.007-2.487-1.376-3.78
		c-0.032-0.115-0.064-0.229-0.107-0.387c-0.054,0.086-0.086,0.129-0.111,0.177c-0.691,1.292-1.38,2.586-2.077,3.875
		c-0.064,0.119-0.055,0.22-0.002,0.319c0.205,0.395,0.386,0.806,0.632,1.173c0.853,1.274,1.958,2.306,3.2,3.189
		c0.4,0.283,0.833,0.521,1.262,0.762c0.353,0.195,0.71,0.193,1.083,0c0.533-0.276,1.01-0.627,1.475-1.001
		c0.959-0.771,1.86-1.609,2.737-2.47c0.781-0.77,1.144-1.732,1.172-2.81c0.032-1.192,0.011-2.384,0.018-3.575
		c0.01-1.513,0.026-3.025,0.034-4.538c0.009-1.419,0.011-2.839,0.014-4.26c0.002-0.585-0.003-1.171,0.006-1.756
		c0.004-0.273-0.015-0.561,0.064-0.814c0.222-0.704,0.611-1.319,1.11-1.861c0.113-0.124,0.232-0.24,0.375-0.387H4.855
		C4.428,9.591,3.146,11.854,3.093,12.122"/>
	<path fill="#231E20" stroke="#010202" stroke-width="0.5" stroke-miterlimit="10" d="M28.873,14.837
		c-0.596-1.046-1.375-1.927-2.4-2.56c-2.316-1.431-4.707-1.524-7.078-0.186c-2.158,1.219-3.341,3.162-3.749,5.576
		c-0.211,1.245-0.114,2.49,0.27,3.702c0.457,1.446,1.237,2.666,2.382,3.626h0c0,0,1.186,1.152,3.148,1.52
		c0.045,0.012,0.092,0.022,0.138,0.024c0.102,0.017,0.204,0.029,0.309,0.043c0.015,0.004,0.03,0.005,0.046,0.005
		c0.343,0.037,0.706,0.049,1.086,0.027l-0.013-0.008c0.148-0.007,0.296-0.017,0.444-0.031c0.888-0.088,1.713-0.353,2.488-0.772
		c1.537-0.832,2.613-2.097,3.317-3.678c0.551-1.239,0.743-2.551,0.643-3.905C29.813,17.016,29.47,15.888,28.873,14.837
		 M26.13,22.146c-0.191,0.815-0.472,1.595-0.934,2.3c-1.035,1.579-2.791,1.646-3.973,0.921c-0.486-0.298-0.833-0.733-1.1-1.23
		c-0.421-0.787-0.626-1.64-0.748-2.514c-0.188-1.323-0.213-2.655-0.128-3.991c0.059-0.918,0.168-1.826,0.416-2.713
		c0.176-0.63,0.41-1.238,0.782-1.783c0.648-0.947,1.546-1.385,2.691-1.308c1.042,0.069,1.779,0.62,2.306,1.489
		c0.377,0.621,0.597,1.305,0.747,2.011c0.23,1.087,0.308,2.188,0.29,3.285C26.501,19.813,26.4,20.988,26.13,22.146"/>
	<path fill="#231E20" stroke="#010202" stroke-width="0.5" stroke-miterlimit="10" d="M43.058,22.054
		c-0.202,0.653-0.464,1.278-0.851,1.847c-0.299,0.442-0.666,0.822-1.106,1.12c-0.56,0.382-1.2,0.495-1.866,0.501
		c-0.308,0.003-0.615,0.011-0.924,0.014c-0.425,0.006-0.848-0.011-1.261-0.127c-0.459-0.129-0.747-0.506-0.751-0.978
		c-0.001-0.266-0.003-0.53,0-0.795c0.007-0.538,0.022-1.076,0.024-1.614c0.004-1.106-0.004-2.211,0.001-3.315
		c0.005-1.049,0.024-2.098,0.032-3.146c0.007-0.851,0.006-1.702,0.004-2.553c-0.001-0.308,0.099-0.565,0.315-0.792
		c0.259-0.273,0.575-0.451,0.909-0.607c0.096-0.045,0.228-0.047,0.276-0.19c-0.034-0.02-0.064-0.05-0.094-0.05
		c-2.021-0.003-4.042-0.003-6.07-0.003c0.042,0.169,0.043,0.165,0.133,0.206c0.214,0.1,0.439,0.18,0.635,0.307
		c0.386,0.252,0.605,0.601,0.6,1.088c-0.025,2.45-0.04,4.901-0.057,7.351c-0.005,0.764-0.003,1.529-0.006,2.294
		c-0.003,0.711-0.007,1.42-0.013,2.13c-0.004,0.576-0.294,0.958-0.817,1.172c-0.213,0.09-0.432,0.168-0.657,0.256
		c-0.022,0.083-0.026,0.16,0.099,0.172c0.076,0.006,0.151,0.02,0.226,0.019c0.245-0.004,0.489-0.018,0.734-0.018
		c1.388,0.001,2.778,0.007,4.167,0.007c1.74,0.001,3.478-0.003,5.216-0.005c0.358,0,0.716,0,1.103,0
		c0.172-1.501,0.332-2.986,0.484-4.492c-0.153-0.032-0.27-0.059-0.4-0.088C43.112,21.875,43.086,21.964,43.058,22.054"/>
	<path fill="#231E20" stroke="#010202" stroke-width="0.5" stroke-miterlimit="10" d="M71.19,11.354
		c-1.259-0.004-2.518-0.007-3.777-0.009c-0.17-0.001-0.341,0.007-0.51,0.013c-0.008,0-0.017,0.008-0.021,0.015
		c-0.005,0.008-0.007,0.017-0.013,0.035c0.028,0.113,0.137,0.101,0.221,0.128c0.37,0.119,0.732,0.255,1.038,0.507
		c0.258,0.212,0.309,0.393,0.199,0.698c-0.042,0.116-0.09,0.229-0.142,0.341c-0.914,1.966-1.954,3.865-3.027,5.747
		c-0.073,0.13-0.157,0.252-0.261,0.418c-0.09-0.186-0.159-0.329-0.229-0.471c-0.755-1.515-1.52-3.024-2.261-4.545
		c-0.269-0.551-0.483-1.129-0.723-1.693c-0.095-0.225-0.034-0.415,0.14-0.562c0.143-0.12,0.31-0.213,0.464-0.32
		c0.094-0.065,0.185-0.136,0.277-0.204l-0.022-0.07c-0.089-0.007-0.178-0.018-0.267-0.019c-1.837-0.001-3.675-0.001-5.511-0.002
		c-0.066,0-0.133-0.005-0.197,0.008c-0.028,0.005-0.065,0.046-0.069,0.074c-0.005,0.029,0.016,0.073,0.041,0.097
		c0.026,0.024,0.067,0.033,0.102,0.044c0.717,0.227,1.222,0.692,1.551,1.359c0.125,0.255,0.256,0.508,0.383,0.761
		c1.146,2.282,2.292,4.565,3.434,6.85c0.048,0.097,0.073,0.216,0.072,0.325c-0.007,1.221-0.04,2.441-0.026,3.662
		c0.006,0.557-0.241,0.938-0.663,1.236c-0.19,0.135-0.404,0.236-0.609,0.352c-0.077,0.044-0.178,0.063-0.183,0.206h6.071
		c0.009-0.017,0.018-0.036,0.026-0.052c-0.038-0.033-0.07-0.076-0.112-0.1c-0.213-0.121-0.438-0.224-0.64-0.359
		c-0.388-0.26-0.646-0.605-0.635-1.101c0.005-0.218,0.01-0.435,0.012-0.652c0.005-1.2,0.016-2.402,0.012-3.604
		c-0.001-0.265,0.061-0.498,0.186-0.729c0.721-1.33,1.431-2.665,2.155-3.994c0.579-1.063,1.174-2.116,1.84-3.129
		c0.262-0.397,0.583-0.718,1.032-0.894c0.184-0.072,0.37-0.142,0.553-0.218c0.052-0.021,0.096-0.063,0.15-0.099
		C71.216,11.374,71.204,11.354,71.19,11.354"/>
	<path fill="#231E20" stroke="#010202" stroke-width="0.5" stroke-miterlimit="10" d="M56.734,22.054
		c-0.203,0.653-0.464,1.278-0.851,1.847c-0.3,0.442-0.666,0.822-1.106,1.12c-0.56,0.382-1.2,0.495-1.866,0.501
		c-0.308,0.003-0.616,0.011-0.924,0.014c-0.425,0.006-0.848-0.011-1.26-0.127c-0.46-0.129-0.748-0.506-0.75-0.978
		c-0.002-0.266-0.003-0.53,0-0.795c0.006-0.538,0.022-1.076,0.024-1.614c0.002-1.106-0.005-2.211,0-3.315
		c0.005-1.049,0.025-2.098,0.032-3.146c0.006-0.851,0.005-1.702,0.004-2.553c0-0.308,0.1-0.565,0.315-0.792
		c0.259-0.273,0.575-0.451,0.909-0.607c0.096-0.045,0.228-0.047,0.276-0.19c-0.033-0.02-0.063-0.05-0.094-0.05
		c-2.021-0.003-4.042-0.003-6.07-0.003c0.042,0.169,0.043,0.165,0.134,0.206c0.213,0.1,0.438,0.18,0.634,0.307
		c0.387,0.252,0.605,0.601,0.6,1.088c-0.025,2.45-0.04,4.901-0.056,7.351c-0.006,0.764-0.004,1.529-0.007,2.294
		c-0.002,0.711-0.006,1.42-0.013,2.13c-0.005,0.576-0.294,0.958-0.816,1.172c-0.214,0.09-0.432,0.168-0.659,0.256
		c-0.021,0.083-0.024,0.16,0.1,0.172c0.075,0.006,0.15,0.02,0.226,0.019c0.244-0.004,0.488-0.018,0.733-0.018
		c1.39,0.001,2.779,0.007,4.168,0.007c1.739,0.001,3.478-0.003,5.216-0.005c0.358,0,0.716,0,1.103,0
		c0.173-1.501,0.332-2.986,0.483-4.492c-0.152-0.032-0.269-0.059-0.399-0.088C56.787,21.875,56.762,21.964,56.734,22.054"/>
	<path fill="#231E20" stroke="#010202" stroke-width="0.5" stroke-miterlimit="10" d="M114.757,8.973
		c-0.593,1.022-1.184,2.039-1.771,3.056c0.017,0.014,0.033,0.028,0.049,0.042c0.053-0.03,0.116-0.049,0.152-0.092
		c0.304-0.355,0.696-0.449,1.141-0.401c0.037,0.004,0.075,0,0.113,0c1.58,0.002,3.162,0.003,4.742,0.005h0.727
		c0,0.16,0.001,0.28,0,0.402c-0.011,1.477-0.025,2.952-0.031,4.429c-0.014,3.039-0.021,6.077-0.035,9.115
		c-0.004,0.796-0.014,1.591-0.048,2.384c-0.025,0.608-0.121,1.208-0.385,1.765c-0.22,0.465-0.553,0.749-1.104,0.727
		c-0.523-0.022-0.951-0.234-1.318-0.583c-0.674-0.642-1.163-1.417-1.57-2.244c-0.619-1.258-1.14-2.553-1.467-3.923
		c-0.057-0.233-0.142-0.46-0.213-0.69c-0.02,0.001-0.039,0.001-0.06,0.004c-0.112,0.219-0.224,0.438-0.339,0.653
		c-0.591,1.099-1.179,2.199-1.775,3.295c-0.091,0.167-0.104,0.313-0.012,0.475c0.222,0.396,0.407,0.814,0.662,1.188
		c0.826,1.209,1.881,2.198,3.063,3.051c0.399,0.286,0.833,0.522,1.254,0.776c0.439,0.263,0.878,0.249,1.31-0.027
		c0.129-0.08,0.266-0.147,0.389-0.235c0.314-0.225,0.634-0.448,0.937-0.69c0.895-0.716,1.724-1.505,2.561-2.286
		c0.905-0.847,1.352-1.883,1.367-3.102c0.022-1.739,0.012-3.478,0.02-5.216c0.008-1.542,0.021-3.084,0.028-4.626
		c0.007-1.562,0.01-3.122,0.021-4.684c0.001-0.129,0.032-0.264,0.076-0.386c0.22-0.6,0.522-1.154,0.949-1.635
		c0.152-0.174,0.309-0.344,0.492-0.545H114.757z"/>
	<path fill="#231E20" stroke="#010202" stroke-width="0.5" stroke-miterlimit="10" d="M187.254,26.062
		c-0.478-0.163-0.862-0.476-1.194-0.834c-0.292-0.316-0.529-0.688-0.769-1.049c-1.04-1.581-2.07-3.168-3.105-4.751
		c-0.031-0.052-0.057-0.107-0.092-0.167c0.25-0.079,0.477-0.141,0.697-0.225c1.037-0.4,1.782-1.115,2.149-2.163
		c0.262-0.748,0.322-1.533,0.179-2.323c-0.178-0.986-0.685-1.748-1.527-2.29c-0.639-0.411-1.345-0.643-2.085-0.781
		c-0.56-0.105-1.127-0.129-1.695-0.128c-2.14,0.007-4.28,0.001-6.42,0.001c-0.107,0-0.215,0.01-0.311,0.014
		c-0.03,0.145,0.044,0.161,0.118,0.188c0.211,0.081,0.431,0.149,0.63,0.255c0.528,0.278,0.848,0.669,0.837,1.323
		c-0.032,1.836-0.024,3.672-0.034,5.507c-0.005,1.307-0.016,2.612-0.024,3.919c-0.003,0.579-0.008,1.154-0.017,1.732
		c-0.006,0.522-0.159,0.986-0.545,1.356c-0.229,0.217-0.507,0.35-0.8,0.45c-0.093,0.031-0.193,0.046-0.146,0.199
		c0.357,0.051,5.829,0.028,6.009-0.024c0.034-0.168-0.112-0.179-0.205-0.212c-0.409-0.15-0.742-0.398-1.004-0.748
		c-0.134-0.181-0.199-0.378-0.198-0.606c0.006-0.642,0.004-1.284,0.006-1.926c0.003-1.003,0.006-2.004,0.012-3.007
		c0.001-0.099,0.012-0.197,0.019-0.318c0.241,0,0.449,0.011,0.655-0.004c0.176-0.012,0.275,0.062,0.364,0.203
		c0.452,0.711,0.911,1.416,1.366,2.123c0.926,1.44,1.854,2.881,2.771,4.325c0.098,0.151,0.197,0.219,0.386,0.218
		c1.211-0.008,2.422-0.002,3.635-0.001h0.497C187.49,26.123,187.354,26.095,187.254,26.062 M181.723,17.064
		c-0.135,0.547-0.38,1.031-0.886,1.336c-0.356,0.217-0.757,0.304-1.166,0.316c-0.585,0.018-1.171,0.003-1.756,0.001
		c-0.057,0-0.112-0.008-0.181-0.014v-6.595c0.237,0,0.452-0.007,0.665,0.001c0.387,0.013,0.778,0.002,1.159,0.06
		c0.861,0.131,1.535,0.564,1.969,1.336c0.241,0.431,0.34,0.904,0.367,1.388C181.937,15.623,181.896,16.352,181.723,17.064"/>
	<path fill="#231E20" stroke="#010202" stroke-width="0.5" stroke-miterlimit="10" d="M156.792,26.091
		c-0.196-0.068-0.4-0.127-0.58-0.226c-0.542-0.298-1.029-0.677-1.435-1.143c-0.377-0.436-0.743-0.881-1.088-1.341
		c-0.59-0.785-1.161-1.584-1.738-2.378c-0.827-1.138-1.651-2.277-2.479-3.417c-0.12-0.166-0.233-0.337-0.349-0.504
		c0.057-0.07,0.093-0.128,0.142-0.17c0.649-0.564,1.302-1.125,1.948-1.689c0.813-0.706,1.629-1.409,2.429-2.128
		c0.521-0.469,1.062-0.909,1.704-1.198c0.268-0.118,0.545-0.211,0.815-0.323c0.081-0.035,0.226-0.036,0.159-0.22
		c-1.647,0-3.302,0-4.956,0c-0.037,0-0.074,0.008-0.112,0.014c-0.006,0.002-0.012,0.014-0.016,0.021
		c-0.003,0.009-0.007,0.019-0.021,0.052c0.068,0.051,0.142,0.105,0.214,0.162c0.237,0.186,0.491,0.354,0.706,0.563
		c0.277,0.269,0.295,0.506,0.114,0.848c-0.044,0.082-0.096,0.165-0.16,0.231c-0.398,0.404-0.785,0.823-1.203,1.203
		c-1.262,1.144-2.534,2.271-3.805,3.402c-0.253,0.226-0.516,0.439-0.824,0.701c-0.014-0.144-0.026-0.215-0.026-0.287
		c0.006-0.662,0.012-1.323,0.015-1.985c0.003-0.405-0.002-0.812,0-1.217c0.006-0.623,0.036-1.246,0.018-1.868
		c-0.018-0.554,0.188-0.978,0.643-1.271c0.237-0.152,0.498-0.267,0.752-0.39c0.077-0.037,0.141-0.062,0.083-0.161h-6.192
		c-0.047,0.158,0.069,0.17,0.146,0.216c0.307,0.185,0.624,0.355,0.916,0.562c0.229,0.163,0.374,0.393,0.366,0.698
		c-0.016,0.662-0.026,1.324-0.03,1.986c-0.011,1.571-0.016,3.142-0.021,4.713c-0.005,1.609-0.013,3.218-0.015,4.827
		c-0.001,0.756-0.355,1.274-1.034,1.583c-0.095,0.043-0.192,0.085-0.292,0.107c-0.141,0.029-0.164,0.104-0.117,0.235
		c0.042,0.009,0.086,0.023,0.132,0.023c1.993-0.004,3.989-0.008,5.983-0.014c0.008-0.001,0.016-0.012,0.021-0.018
		c0.008-0.007,0.01-0.018,0.028-0.049c-0.033-0.039-0.063-0.099-0.113-0.126c-0.186-0.099-0.378-0.188-0.568-0.282
		c-0.393-0.195-0.845-0.675-0.813-1.288c0.023-0.48,0.019-0.963,0.021-1.443c0.005-1.039,0.02-2.077,0-3.114
		c-0.008-0.415,0.264-0.579,0.521-0.8c0.243,0.325,0.468,0.616,0.684,0.915c0.761,1.059,1.522,2.117,2.273,3.183
		c0.343,0.487,0.675,0.981,0.986,1.489c0.238,0.385,0.134,0.761-0.249,1.002c-0.197,0.124-0.405,0.234-0.618,0.325
		c-0.102,0.042-0.136,0.083-0.11,0.201h7.282C156.975,26.153,156.888,26.124,156.792,26.091"/>
	<path fill="#231E20" stroke="#010202" stroke-width="0.5" stroke-miterlimit="10" d="M139.215,15.782
		c-0.036-0.087-0.031-0.199-0.164-0.245c-0.045-0.015-0.02-0.183-0.06-0.266c-0.423-0.879-0.989-1.66-1.719-2.303
		c-1.391-1.225-3.005-1.857-4.88-1.784c-1.224,0.048-2.35,0.393-3.37,1.054c-2.004,1.304-3.141,3.173-3.493,5.526
		c-0.211,1.413-0.073,2.796,0.457,4.125c0.859,2.153,2.335,3.687,4.571,4.421c1.225,0.401,2.471,0.428,3.716,0.106
		c1.137-0.292,2.139-0.847,2.993-1.644c1.696-1.585,2.49-3.566,2.538-5.276C139.82,17.704,139.591,16.701,139.215,15.782
		 M135.875,22.686c-0.232,0.774-0.553,1.503-1.078,2.137c-1.164,1.408-3.461,1.276-4.497-0.229c-0.466-0.676-0.731-1.429-0.9-2.221
		c-0.262-1.229-0.315-2.473-0.308-3.725c0.008-0.843,0.066-1.683,0.194-2.517c0.165-1.073,0.447-2.108,1.065-3.023
		c1.03-1.525,2.863-1.553,3.938-0.88c0.418,0.26,0.743,0.61,1,1.027c0.425,0.687,0.656,1.441,0.815,2.225
		c0.211,1.034,0.261,2.083,0.282,3.151C136.367,19.99,136.273,21.356,135.875,22.686"/>
	<path fill="#231E20" stroke="#010202" stroke-width="0.5" stroke-miterlimit="10" d="M171.327,21.017
		c0.036-0.107,0.106-0.118,0.197-0.067l-0.137,1.006c-0.003,0.013-0.004,0.027-0.006,0.04c-0.019,0.13-0.036,0.258-0.054,0.387
		l-0.327,2.397c-0.069,0.499-0.143,1-0.22,1.534c-3.74,0.023-7.465,0.005-11.234,0.009c0.028-0.089,0.03-0.158,0.064-0.187
		c0.063-0.053,0.144-0.097,0.224-0.116c0.694-0.179,1.162-0.81,1.146-1.491c-0.019-0.736,0.023-1.476,0.025-2.211
		c0.003-1.032-0.016-2.062-0.012-3.093c0.009-1.693,0.029-3.388,0.042-5.082c0.002-0.407-0.021-0.813,0.001-1.22
		c0.02-0.337-0.123-0.582-0.348-0.801c-0.242-0.234-0.533-0.39-0.848-0.5c-0.072-0.025-0.149-0.041-0.212-0.082
		c-0.043-0.027-0.062-0.091-0.122-0.188c0.152,0,0.245,0,0.338,0c3.464,0,6.93,0.001,10.396-0.001c0.16,0,0.316-0.004,0.42,0.203
		l-0.042,5.106c-0.16,0.052-0.316-0.028-0.333-0.132c-0.052-0.326-0.099-0.654-0.162-0.979c-0.138-0.689-0.329-1.36-0.706-1.965
		c-0.286-0.459-0.692-0.769-1.191-0.964c-0.543-0.213-1.116-0.295-1.692-0.331c-0.688-0.044-1.38-0.049-2.069-0.068
		c-0.047-0.002-0.093,0.009-0.177,0.018v6.102c0.729,0.049,1.373-0.134,1.904-0.629c0.522-0.485,0.733-1.132,0.84-1.829h0.484
		c0.015,0.06,0.047,0.131,0.046,0.201c-0.008,0.688-0.027,1.373-0.031,2.061c-0.005,0.791,0.007,1.583,0.006,2.375
		c-0.002,0.754-0.013,1.507-0.02,2.26c0,0.102,0,0.203,0,0.313c-0.166,0.04-0.212-0.022-0.238-0.179
		c-0.1-0.596-0.187-1.197-0.343-1.778c-0.105-0.398-0.296-0.776-0.488-1.144c-0.156-0.296-0.413-0.51-0.737-0.633
		c-0.419-0.157-0.844-0.276-1.297-0.266c-0.064,0.002-0.128,0.017-0.214,0.028c-0.009,0.3-0.027,0.59-0.028,0.88
		c-0.002,1.001,0,2.003-0.001,3.004c0,0.473-0.003,0.944-0.008,1.417c-0.002,0.308,0.13,0.549,0.379,0.719
		c0.352,0.237,0.732,0.367,1.166,0.325c0.099-0.011,0.204,0.029,0.306,0.029c0.542-0.003,1.082-0.04,1.617-0.153
		c0.894-0.193,1.629-0.637,2.221-1.322c0.702-0.81,1.108-1.773,1.415-2.785C171.289,21.163,171.303,21.088,171.327,21.017"/>
	<path fill="#231F20" d="M110.191,5.029c0,0-5.024-0.35-9.608-1.591c-4.386-1.187-8.337-3.268-8.337-3.268s-3.951,2.081-8.336,3.268
		c-4.583,1.241-9.61,1.591-9.61,1.591s-1.417,14.707,2.75,22.787c4.766,9.242,15.197,12.013,15.197,12.013
		s10.431-2.771,15.198-12.013C111.609,19.736,110.191,5.029,110.191,5.029"/>
	<path fill="none" stroke="#FFFFFF" stroke-width="0.75" stroke-miterlimit="10" d="M92.246,38.79
		c-1.597-0.496-10.219-3.493-14.312-11.43c-3.433-6.658-2.924-18.233-2.708-21.41c1.65-0.156,5.397-0.59,8.942-1.549
		c3.613-0.979,6.891-2.524,8.077-3.113c1.185,0.589,4.464,2.135,8.077,3.113c3.545,0.959,7.293,1.393,8.941,1.549
		c0.217,3.177,0.723,14.759-2.707,21.41C102.464,35.297,93.843,38.294,92.246,38.79z"/>
	<path fill="#EB0029" d="M82.653,10.521c0.15-0.118,0.282-0.203,0.389-0.313c0.112-0.115,0.24-0.146,0.39-0.145
		c0.385,0.004,0.771,0.005,1.156,0.004c1.211-0.003,2.424-0.008,3.635-0.012c0.086,0,0.172,0.01,0.264,0.016
		c0.008,0.082,0.019,0.146,0.019,0.208c0,0.474,0.002,0.946-0.002,1.421c-0.014,2.031-0.032,4.063-0.044,6.095
		c-0.01,1.72-0.012,3.438-0.023,5.157c-0.003,0.577,0,1.158-0.125,1.728c-0.079,0.356-0.173,0.703-0.413,1.01
		c-0.303,0.388-0.809,0.402-1.153,0.278c-0.453-0.164-0.793-0.479-1.098-0.835c-0.485-0.565-0.828-1.22-1.14-1.891
		c-0.481-1.034-0.854-2.11-1.167-3.206c-0.027-0.099-0.054-0.195-0.091-0.329c-0.045,0.073-0.073,0.109-0.093,0.15
		c-0.587,1.097-1.172,2.195-1.764,3.287c-0.054,0.102-0.047,0.187-0.002,0.271c0.174,0.335,0.328,0.682,0.537,0.993
		c0.724,1.082,1.661,1.957,2.716,2.706c0.339,0.242,0.706,0.444,1.07,0.647c0.299,0.167,0.603,0.164,0.919-0.001
		c0.452-0.235,0.858-0.53,1.251-0.847c0.813-0.656,1.578-1.367,2.322-2.098c0.663-0.652,0.97-1.47,0.994-2.383
		c0.027-1.011,0.01-2.022,0.016-3.033c0.008-1.283,0.021-2.567,0.029-3.851c0.007-1.204,0.009-2.409,0.012-3.613
		c0.001-0.497-0.003-0.994,0.004-1.49c0.004-0.232-0.013-0.477,0.055-0.691c0.187-0.597,0.519-1.118,0.941-1.579
		c0.096-0.105,0.197-0.204,0.318-0.328h-8.429C83.786,8.374,82.698,10.295,82.653,10.521"/>
	<path fill="#EB0029" d="M91.788,15.914c0.149-0.117,0.282-0.203,0.389-0.312c0.112-0.116,0.24-0.147,0.389-0.146
		c0.386,0.004,0.771,0.005,1.157,0.004c1.212-0.003,2.424-0.008,3.636-0.011c0.086-0.001,0.171,0.01,0.264,0.015
		c0.008,0.083,0.02,0.146,0.02,0.207c0.001,0.475,0.001,0.948-0.001,1.422c-0.016,2.031-0.033,4.063-0.045,6.096
		c-0.011,1.72-0.012,3.438-0.023,5.157c-0.003,0.578,0.001,1.158-0.124,1.726c-0.077,0.357-0.174,0.703-0.413,1.011
		c-0.303,0.388-0.81,0.403-1.153,0.277c-0.453-0.163-0.794-0.479-1.099-0.834c-0.484-0.564-0.826-1.22-1.139-1.891
		c-0.482-1.035-0.854-2.11-1.167-3.207c-0.028-0.098-0.055-0.195-0.092-0.328c-0.046,0.072-0.071,0.109-0.092,0.149
		c-0.588,1.096-1.172,2.195-1.763,3.289c-0.055,0.101-0.047,0.185-0.003,0.271c0.175,0.333,0.328,0.682,0.537,0.993
		c0.724,1.081,1.662,1.957,2.715,2.707c0.339,0.24,0.707,0.442,1.071,0.646c0.299,0.166,0.602,0.164,0.918,0
		c0.452-0.234,0.857-0.53,1.251-0.847c0.814-0.658,1.578-1.367,2.323-2.098c0.662-0.653,0.97-1.47,0.994-2.385
		c0.026-1.009,0.01-2.021,0.016-3.032c0.008-1.284,0.021-2.566,0.029-3.851c0.007-1.204,0.008-2.408,0.011-3.613
		c0.001-0.497-0.003-0.994,0.006-1.49c0.004-0.231-0.013-0.476,0.056-0.691c0.187-0.597,0.518-1.118,0.94-1.579
		c0.096-0.104,0.197-0.203,0.318-0.327h-8.43C92.918,13.767,91.832,15.688,91.788,15.914"/>
</g>
</svg>
